<svg width="52" height="50" viewBox="0 0 52 50" fill="none" xmlns="http://www.w3.org/2000/svg">
<path id="Combined Shape" fill-rule="evenodd" clip-rule="evenodd" d="M28.2744 5.09245V0.103676L22.8308 0.0429688L20.79 3.42925L23.2848 5.92488L28.2744 5.09245ZM22.4532 10.9137L15.8004 4.26002L12.474 7.58725L18.1472 12.6401L22.4532 10.9137ZM29.4478 14.8047L26.1264 12.3889L26.7301 9.67207L32.4324 9.25128L39.9168 15.0717L38.2536 20.0613L35.7588 21.7253L33.264 20.0613V17.5665L30.7692 14.2401L29.4478 14.8047ZM49.0644 47.5041H47.4012C46.942 47.5041 46.5696 47.1318 46.5696 46.6725C46.5696 46.2132 46.942 45.8409 47.4012 45.8409H49.0644C49.5237 45.8409 49.896 46.2132 49.896 46.6725C49.896 47.1318 49.5237 47.5041 49.0644 47.5041ZM49.0644 35.8617H50.7277C51.1869 35.8617 51.5593 35.4894 51.5593 35.0301C51.5593 34.5708 51.1869 34.1985 50.7277 34.1985H49.0644C48.6052 34.1985 48.2328 34.5708 48.2328 35.0301C48.2328 35.4894 48.6052 35.8617 49.0644 35.8617ZM39.0852 35.8617L44.0748 32.5353V29.2089L39.0852 24.2193L35.7588 27.5457L32.4324 24.2193L29.106 26.7141L32.4324 30.8721L29.9376 35.8617L27.4428 31.7037L21.6216 29.2089L24.948 22.5561L27.4428 19.2297L21.6216 15.9033L18.2952 19.2297L7.48441 8.41885L0.831601 15.9033L2.78586 23.9548L0 26.7141L2.4948 34.1985L22.4532 44.1777L24.948 40.0197L29.9376 43.3461L33.264 49.9989L37.422 43.3461H44.0748L44.9064 38.3565L39.0852 35.8617Z" fill="#0E8784"/>
</svg>
